<svg viewBox="0 0 496 496" xmlns="http://www.w3.org/2000/svg"><path d="m448 168c0 48.519531-39.480469 88-88 88-20.777344 0-40.960938-7.414062-56.839844-20.878906l-10.34375 12.199218c18.769532 15.910157 42.632813 24.679688 67.183594 24.679688 57.34375 0 104-46.65625 104-104 0-24.550781-8.769531-48.414062-24.679688-67.183594l-12.199218 10.34375c13.464844 15.878906 20.878906 36.0625 20.878906 56.839844zm0 0"/><path d="m256 168c0 24.550781 8.769531 48.414062 24.679688 67.183594l12.199218-10.34375c-13.464844-15.878906-20.878906-36.0625-20.878906-56.839844 0-48.519531 39.480469-88 88-88 20.777344 0 40.960938 7.414062 56.839844 20.878906l10.34375-12.199218c-18.769532-15.910157-42.632813-24.679688-67.183594-24.679688-57.34375 0-104 46.65625-104 104zm0 0"/><path d="m219.097656 264h12.902344v-16h-73.472656c-2.414063-6.777344-7.75-12.113281-14.527344-14.527344v-17.472656h-16v17.472656c-6.777344 2.414063-12.113281 7.75-14.527344 14.527344h-73.472656v16h12.902344l-10.664063 32h-10.238281v8c0 22.054688 17.945312 40 40 40s40-17.945312 40-40v-8h-10.238281l-10.664063-32h22.375c2.414063 6.777344 7.75 12.113281 14.527344 14.527344v105.472656h-8c-22.054688 0-40 17.945312-40 40v8h112v-8c0-22.054688-17.945312-40-40-40h-8v-105.472656c6.777344-2.414063 12.113281-7.75 14.527344-14.527344h22.375l-10.664063 32h-10.238281v8c0 22.054688 17.945312 40 40 40s40-17.945312 40-40v-8h-10.238281zm-44.464844 152h-77.265624c3.304687-9.3125 12.199218-16 22.632812-16h32c10.433594 0 19.328125 6.6875 22.632812 16zm-102.632812-88c-10.433594 0-19.328125-6.6875-22.632812-16h45.265624c-3.304687 9.3125-12.199218 16-22.632812 16zm12.902344-32h-25.804688l10.664063-32h4.46875zm51.097656-32c-4.414062 0-8-3.585938-8-8s3.585938-8 8-8 8 3.585938 8 8-3.585938 8-8 8zm61.761719 0h4.46875l10.664062 32h-25.804687zm2.238281 64c-10.433594 0-19.328125-6.6875-22.632812-16h45.265624c-3.304687 9.3125-12.199218 16-22.632812 16zm0 0"/><path d="m496 168c0-72.304688-56.71875-131.609375-128-135.769531v-32.230469h-368v464h320.808594c3.71875 18.230469 19.871094 32 39.191406 32 22.054688 0 40-17.945312 40-40v-136h-16v-18.246094c63.566406-11.386718 112-66.960937 112-133.753906zm-112 288c0 13.230469-10.769531 24-24 24s-24-10.769531-24-24v-8h-320v-432h336v32h8c66.167969 0 120 53.832031 120 120s-53.832031 120-120 120-120-53.832031-120-120c0-54.792969 37.007812-102.585938 89.992188-116.214844l6.007812-1.554687v-18.230469h-304v104h195.800781c-2.488281 10.304688-3.800781 21.03125-3.800781 32 0 66.792969 48.433594 122.367188 112 133.753906v18.246094h-16v112h16v-96h48zm-151.28125-336h-184.71875v-72h247.871094c-29.199219 15.585938-51.589844 41.320312-63.152344 72zm135.28125 200h-16v-16.40625c2.664062.160156 5.296875.40625 8 .40625s5.335938-.246094 8-.40625zm0 0"/><path d="m32 152h16v16h-16zm0 0"/><path d="m64 152h144v16h-144zm0 0"/><path d="m32 184h176v16h-176zm0 0"/></svg>