<?xml version="1.0"?>
<svg xmlns="http://www.w3.org/2000/svg" id="Layer_2" data-name="Layer 2" viewBox="0 0 128 128" width="512" height="512"><title>WEIGHT SCALE</title><path d="M120.875,0H6.75A6.758,6.758,0,0,0,0,6.75V120.875a6.758,6.758,0,0,0,6.75,6.75H120.875a6.758,6.758,0,0,0,6.75-6.75V6.75A6.758,6.758,0,0,0,120.875,0Zm3.25,120.875a3.254,3.254,0,0,1-3.25,3.25H6.75a3.254,3.254,0,0,1-3.25-3.25V6.75A3.254,3.254,0,0,1,6.75,3.5H120.875a3.254,3.254,0,0,1,3.25,3.25Z"/><path d="M115.875,48.25H11.75A1.75,1.75,0,0,0,10,50v65.875a1.75,1.75,0,0,0,1.75,1.75H115.875a1.75,1.75,0,0,0,1.75-1.75V50A1.75,1.75,0,0,0,115.875,48.25Zm-1.75,65.875H13.5V51.75H114.125Z"/><path d="M33.125,81.188a1.75,1.75,0,0,0,0,3.5H94.5a1.75,1.75,0,0,0,0-3.5Z"/><path d="M21.625,73.649H106a1.75,1.75,0,0,0,0-3.5H21.625a1.75,1.75,0,0,0,0,3.5Z"/><path d="M33.125,62.611H94.5a1.75,1.75,0,0,0,0-3.5H33.125a1.75,1.75,0,0,0,0,3.5Z"/><path d="M21.625,95.726H106a1.75,1.75,0,0,0,0-3.5H21.625a1.75,1.75,0,0,0,0,3.5Z"/><path d="M94.5,103.264H33.125a1.75,1.75,0,0,0,0,3.5H94.5a1.75,1.75,0,0,0,0-3.5Z"/><path d="M25.875,39.917H101.75a1.75,1.75,0,0,0,1.75-1.75V27.75A17.769,17.769,0,0,0,87.383,10.083c-.045,0-.087-.013-.133-.013-.015,0-.029,0-.044,0-.482-.039-.965-.074-1.456-.074H41.875a17.77,17.77,0,0,0-17.75,17.75V38.167A1.75,1.75,0,0,0,25.875,39.917Zm35.8-3.5,1.205-10.084h2.23L66.32,36.417ZM27.625,27.75A14.274,14.274,0,0,1,39,13.792v2.541a1.75,1.75,0,0,0,3.5,0V13.5h4.25v5.083a1.75,1.75,0,0,0,3.5,0V13.5H54.5v2.833a1.75,1.75,0,0,0,3.5,0V13.5h4.25v5.083a1.75,1.75,0,0,0,3.5,0V13.5H70v2.833a1.75,1.75,0,0,0,3.5,0V13.5h4.25v5.083a1.75,1.75,0,0,0,3.5,0V13.5H85.5v2.833a1.75,1.75,0,0,0,3.5,0V13.888A14.265,14.265,0,0,1,100,27.75v8.667H69.845L68.406,24.375a1.749,1.749,0,0,0-1.737-1.542H61.331a1.749,1.749,0,0,0-1.737,1.542L58.155,36.417H27.625Z"/></svg>
